# xmcd
#
# Track frame offsets:
#	150
#	13894
#	26970
#	46707
#	74030
#	96875
#	117762
#	138832
#	152152
#	170818
#	181004
#	194396
#
# Disc length: 2729 seconds
#
# Revision: 1
# Processed by: cddbd v1.5.2PL0 Copyright (c) Steve Scherf et al.
# Submitted via: audiograbber 1.83.01
#
DISCID=a50aa70c
DTITLE=Michael Nesmith and The Second National Band - Tantamount To Treason - Vol
DTITLE=ume One
DYEAR=1972
DGENRE=Oldies
TTITLE0=Michael Nesmith and The Second National Band - Mama Rocker
TTITLE1=Michael Nesmith and The Second National Band - Lazy Lady
TTITLE2=Michael Nesmith and The Second National Band - You Are My One
TTITLE3=Michael Nesmith and The Second National Band - In The Afternoon
TTITLE4=Michael Nesmith and The Second National Band - Highway 99 With Melange
TTITLE5=Michael Nesmith and The Second National Band - Wax Minute
TTITLE6=Michael Nesmith and The Second National Band - Bonaparte's Retreat
TTITLE7=Michael Nesmith and The Second National Band - Talking To The Wall
TTITLE8=Michael Nesmith and The Second National Band - She Thinks I Still Care
TTITLE9=Michael Nesmith   - Cantata And Fugue In C and W
TTITLE10=Michael Nesmith  - Smoke, Smoke, Smoke That Cigarette
TTITLE11=Michael Nesmith  - Rose City Chimes
EXTD=
EXTT0=
EXTT1=
EXTT2=
EXTT3=
EXTT4=
EXTT5=
EXTT6=
EXTT7=
EXTT8=
EXTT9=
EXTT10=
EXTT11=
PLAYORDER=
